{"title":"Mom (2017) 800Mb Rip - CAMRIP - x264 - AAC - DUS 9th Anni","magnet":"magnet:?xt=urn:btih:1514f607f9ce6576028331bb28b22f636731b3d9&dn=Mom+%282017%29+800Mb+Rip+-+CAMRIP+-+x264+-+AAC+-+DUS+9th+Anni&tr=udp%3A%2F%2Ftracker.leechers-paradise.org%3A6969&tr=udp%3A%2F%2Fzer0day.ch%3A1337&tr=udp%3A%2F%2Fopen.demonii.com%3A1337&tr=udp%3A%2F%2Ftracker.coppersurfer.tk%3A6969&tr=udp%3A%2F%2Fexodus.desync.com%3A6969","uploader":"0prestige","categoryP":"video","categoryS":"movies","size":"845093678","seeders":"0","leechers":"0","description":"Check the scenes:\r\n <a href=\"\nhttp://imgdragon.net/image/4VJ8\" rel=\"nofollow\" target=\"_NEW\">\nhttp://imgdragon.net/image/4VJ8</a> <a href=\"\nhttp://imgdragon.net/image/4Lu3\" rel=\"nofollow\" target=\"_NEW\">\nhttp://imgdragon.net/image/4Lu3</a> <a href=\"\nhttp://imgdragon.net/image/4yEe\" rel=\"nofollow\" target=\"_NEW\">\nhttp://imgdragon.net/image/4yEe</a> <a href=\"\nhttp://imgdragon.net/image/4zsC\" rel=\"nofollow\" target=\"_NEW\">\nhttp://imgdragon.net/image/4zsC</a>\r\n\r\nFormat : Matroska \r\nFormat version : Version 2 \r\nFile size : 806 MiB \r\nDuration : 2 h 17 min \r\n\r\n\r\nVideo \r\nID : 1 \r\nFormat : AVC \r\nFormat/Info : Advanced Video Codec \r\nFormat profile : <a class=\"__cf_email__\" href=\"/cdn-cgi/l/email-protection\" data-cfemail=\"bef6d7d9d6fef28c908f\">[email&#xA0;protected]</a><script data-cfhash=\"f9e31\" type=\"text/javascript\">/* <![CDATA[ */!function(t,e,r,n,c,a,p){try{t=document.currentScript||function(){for(t=document.getElementsByTagName('script'),e=t.length;e--;)if(t[e].getAttribute('data-cfhash'))return t[e]}();if(t&&(c=t.previousSibling)){p=t.parentNode;if(a=c.getAttribute('data-cfemail')){for(e='',r='0x'+a.substr(0,2)|0,n=2;a.length-n;n+=2)e+='%'+('0'+('0x'+a.substr(n,2)^r).toString(16)).slice(-2);p.replaceChild(document.createTextNode(decodeURIComponent(e)),c)}p.removeChild(t)}}catch(u){}}()/* ]]> */</script> \r\nFormat settings, CABAC : Yes \r\nFormat settings, ReFrames : 4 frames \r\nCodec ID : V_MPEG4/ISO/AVC \r\nDuration : 2 h 17 min \r\nBit rate : 750 kb/s \r\nWidth : 640 pixels \r\nHeight : 272 pixels \r\nDisplay aspect ratio : 2.35:1 \r\nFrame rate mode : Constant \r\nFrame rate : 25.000 FPS \r\nColor space : YUV \r\nChroma subsampling : 4:2:0 \r\nBit depth : 8 bits \r\nScan type : Progressive \r\nBits/(Pixel*Frame) : 0.172 \r\nStream size : 741 MiB (92%) \r\naq=1:1.00 \r\nDefault : Yes \r\nForced : No \r\n\r\nAudio \r\nID : 2 \r\nFormat : AAC \r\nFormat/Info : Advanced Audio Codec \r\nFormat profile : HE-AAC / LC \r\nCodec ID : A_AAC \r\nDuration : 2 h 17 min \r\nBit rate : 64.0 kb/s \r\nChannel(s) : 2 channels \r\nChannel positions : Front: L R \r\nSampling rate : 44.1 kHz / 22.05 kHz \r\nFrame rate : 21.533 FPS (1024 spf) \r\nCompression mode : Lossy \r\nDelay relative to video : 33 ms \r\nStream size : 63.0 MiB (8%) \r\nDefault : Yes","last_updated":"2017-07-08T12:00:59.850Z","parsed":{"xt":"urn:btih:1514f607f9ce6576028331bb28b22f636731b3d9","dn":"Mom (2017) 800Mb Rip - CAMRIP - x264 - AAC - DUS 9th Anni","tr":["udp://exodus.desync.com:6969","udp://open.demonii.com:1337","udp://tracker.coppersurfer.tk:6969","udp://tracker.leechers-paradise.org:6969","udp://zer0day.ch:1337"],"infoHash":"1514f607f9ce6576028331bb28b22f636731b3d9","infoHashBuffer":{"type":"Buffer","data":[21,20,246,7,249,206,101,118,2,131,49,187,40,178,47,99,103,49,179,217]},"name":"Mom (2017) 800Mb Rip - CAMRIP - x264 - AAC - DUS 9th Anni","announce":["udp://exodus.desync.com:6969","udp://open.demonii.com:1337","udp://tracker.coppersurfer.tk:6969","udp://tracker.leechers-paradise.org:6969","udp://zer0day.ch:1337"],"urlList":[]}}